<?xml version="1.0" encoding="UTF-8" standalone="no"?>
<svg
   xmlns:dc="http://purl.org/dc/elements/1.1/"
   xmlns:cc="http://creativecommons.org/ns#"
   xmlns:rdf="http://www.w3.org/1999/02/22-rdf-syntax-ns#"
   xmlns:svg="http://www.w3.org/2000/svg"
   xmlns="http://www.w3.org/2000/svg"
   viewBox="0 0 128 128"
   height="128"
   width="128"
   xml:space="preserve"
   id="svg2"
   version="1.1"><metadata
     id="metadata8"><rdf:RDF><cc:Work
         rdf:about=""><dc:format>image/svg+xml</dc:format><dc:type
           rdf:resource="http://purl.org/dc/dcmitype/StillImage" /></cc:Work></rdf:RDF></metadata><defs
     id="defs6"><clipPath
       id="clipPath18"
       clipPathUnits="userSpaceOnUse"><path
         id="path16"
         d="M 0,96 H 96 V 0 H 0 Z" /></clipPath><clipPath
       id="clipPath34"
       clipPathUnits="userSpaceOnUse"><path
         id="path32"
         d="m 7.5,72.771 6.617,-5.212 c 3.742,6.153 9.111,11.207 15.513,14.562 v 0 C 32.351,89.635 39.55,95 48,95 v 0 C 30.975,95 16.022,86.135 7.5,72.771" /></clipPath><linearGradient
       id="linearGradient52"
       spreadMethod="pad"
       gradientTransform="matrix(-28.619329,10.416585,-10.416585,-28.619329,41.608398,77.439941)"
       gradientUnits="userSpaceOnUse"
       y2="0"
       x2="1"
       y1="0"
       x1="0"><stop
         id="stop40"
         offset="0"
         style="stop-opacity:1;stop-color:#112a47" /><stop
         id="stop42"
         offset="0.286644"
         style="stop-opacity:1;stop-color:#112a47" /><stop
         id="stop44"
         offset="0.56738536"
         style="stop-opacity:1;stop-color:#112a47" /><stop
         id="stop46"
         offset="0.648968"
         style="stop-opacity:1;stop-color:#247fa3" /><stop
         id="stop48"
         offset="0.702065"
         style="stop-opacity:1;stop-color:#247fa3" /><stop
         id="stop50"
         offset="1"
         style="stop-opacity:1;stop-color:#247fa3" /></linearGradient><clipPath
       id="clipPath62"
       clipPathUnits="userSpaceOnUse"><path
         id="path60"
         d="M 0,96 H 96 V 0 H 0 Z" /></clipPath><clipPath
       id="clipPath90"
       clipPathUnits="userSpaceOnUse"><path
         id="path88"
         d="M 66.37,11.878 C 64.345,6.287 59.841,1.886 54.186,0 v 0 h 3.607 c 14.184,2.941 26.076,12.142 32.659,24.585 v 0 L 83.705,29.79 C 80.001,22.119 73.898,15.824 66.37,11.878" /></clipPath><linearGradient
       id="linearGradient106"
       spreadMethod="pad"
       gradientTransform="matrix(-45.708153,-16.636408,16.636408,-45.708153,91.345703,22.126953)"
       gradientUnits="userSpaceOnUse"
       y2="0"
       x2="1"
       y1="0"
       x1="0"><stop
         id="stop96"
         offset="0"
         style="stop-opacity:1;stop-color:#247fa3" /><stop
         id="stop98"
         offset="0.39528"
         style="stop-opacity:1;stop-color:#247fa3" /><stop
         id="stop100"
         offset="0.50331875"
         style="stop-opacity:1;stop-color:#247fa3" /><stop
         id="stop102"
         offset="0.783604"
         style="stop-opacity:1;stop-color:#112a47" /><stop
         id="stop104"
         offset="1"
         style="stop-opacity:1;stop-color:#112a47" /></linearGradient><clipPath
       id="clipPath116"
       clipPathUnits="userSpaceOnUse"><path
         id="path114"
         d="M 0,96 H 96 V 0 H 0 Z" /></clipPath><clipPath
       id="clipPath136"
       clipPathUnits="userSpaceOnUse"><path
         id="path134"
         d="M 59.163,75.465 C 59.163,69.299 54.166,64.302 48,64.302 v 0 c -0.034,0 -0.067,0.002 -0.1,0.002 v 0 -8.372 c 0.033,0 0.066,-0.002 0.1,-0.002 v 0 c 10.789,0 19.535,8.747 19.535,19.535 v 0 c 0,2.339 -0.411,4.58 -1.165,6.656 v 0 C 60.88,85 54.629,86.628 48,86.628 v 0 c 6.166,0 11.163,-4.998 11.163,-11.163" /></clipPath><linearGradient
       id="linearGradient152"
       spreadMethod="pad"
       gradientTransform="matrix(5.3579965,30.386703,-30.386703,5.3579965,53.322266,54.975586)"
       gradientUnits="userSpaceOnUse"
       y2="0"
       x2="1"
       y1="0"
       x1="0"><stop
         id="stop142"
         offset="0"
         style="stop-opacity:1;stop-color:#247fa3" /><stop
         id="stop144"
         offset="0.150442"
         style="stop-opacity:1;stop-color:#247fa3" /><stop
         id="stop146"
         offset="0.63103072"
         style="stop-opacity:1;stop-color:#247fa3" /><stop
         id="stop148"
         offset="0.781711"
         style="stop-opacity:1;stop-color:#112a47" /><stop
         id="stop150"
         offset="1"
         style="stop-opacity:1;stop-color:#112a47" /></linearGradient><clipPath
       id="clipPath162"
       clipPathUnits="userSpaceOnUse"><path
         id="path160"
         d="M 0,96 H 96 V 0 H 0 Z" /></clipPath><clipPath
       id="clipPath174"
       clipPathUnits="userSpaceOnUse"><path
         id="path172"
         d="m 29.63,25.191 c -0.754,-2.075 -1.165,-4.318 -1.165,-6.655 v 0 c 0,-2.34 0.411,-4.582 1.165,-6.658 v 0 C 35.12,9 41.371,7.372 48,7.372 v 0 c -6.165,0 -11.163,4.997 -11.163,11.164 v 0 c 0,6.131 4.944,11.105 11.063,11.159 v 0 8.372 C 39.494,38.025 32.341,32.674 29.63,25.191" /></clipPath><linearGradient
       id="linearGradient190"
       spreadMethod="pad"
       gradientTransform="matrix(-5.3520584,-30.353046,30.353046,-5.3520584,42.669922,38.989258)"
       gradientUnits="userSpaceOnUse"
       y2="0"
       x2="1"
       y1="0"
       x1="0"><stop
         id="stop180"
         offset="0"
         style="stop-opacity:1;stop-color:#247fa3" /><stop
         id="stop182"
         offset="0.20059"
         style="stop-opacity:1;stop-color:#247fa3" /><stop
         id="stop184"
         offset="0.72860062"
         style="stop-opacity:1;stop-color:#247fa3" /><stop
         id="stop186"
         offset="0.861357"
         style="stop-opacity:1;stop-color:#112a47" /><stop
         id="stop188"
         offset="1"
         style="stop-opacity:1;stop-color:#112a47" /></linearGradient><clipPath
       id="clipPath200"
       clipPathUnits="userSpaceOnUse"><path
         id="path198"
         d="M 0,96 H 96 V 0 H 0 Z" /></clipPath></defs><g
     transform="matrix(1.3333333,0,0,-1.3333333,0,128)"
     id="g10"><g
       id="g12"><g
         clip-path="url(#clipPath18)"
         id="g14"><g
           transform="translate(7.4995,72.7715)"
           id="g20"><path
             id="path22"
             style="fill:#247fa3;fill-opacity:1;fill-rule:nonzero;stroke:none"
             d="M 0,0 6.617,-5.213 C 2.973,-11.207 0.873,-18.244 0.873,-25.771 v -0.068 H -7.5 v 0.068 C -7.5,-16.287 -4.748,-7.445 0,0" /></g><g
           transform="translate(7.4995,72.7715)"
           id="g24"><path
             id="path26"
             style="fill:none;stroke:#247fa3;stroke-width:0.60000002;stroke-linecap:butt;stroke-linejoin:miter;stroke-miterlimit:10;stroke-dasharray:none;stroke-opacity:1"
             d="M 0,0 6.617,-5.213 C 2.973,-11.207 0.873,-18.244 0.873,-25.771 v -0.068 H -7.5 v 0.068 C -7.5,-16.287 -4.748,-7.445 0,0 Z" /></g></g></g><g
       id="g28"><g
         clip-path="url(#clipPath34)"
         id="g30"><g
           id="g36"><g
             id="g38"><path
               id="path54"
               style="fill:url(#linearGradient52);stroke:none"
               d="m 7.5,72.771 6.617,-5.212 c 3.742,6.153 9.111,11.207 15.513,14.562 v 0 C 32.351,89.635 39.55,95 48,95 v 0 C 30.975,95 16.022,86.135 7.5,72.771" /></g></g></g></g><g
       id="g56"><g
         clip-path="url(#clipPath62)"
         id="g58"><g
           transform="translate(48,95)"
           id="g64"><path
             id="path66"
             style="fill:none;stroke:#247fa3;stroke-width:0.60000002;stroke-linecap:butt;stroke-linejoin:miter;stroke-miterlimit:10;stroke-dasharray:none;stroke-opacity:1"
             d="m 0,0 c -8.45,0 -15.648,-5.366 -18.37,-12.878 -6.402,-3.355 -11.772,-8.41 -15.514,-14.564 l -6.616,5.213 C -31.979,-8.864 -17.025,0 0,0 Z" /></g><g
           transform="translate(0,46.9326)"
           id="g68"><path
             id="path70"
             style="fill:#247fa3;fill-opacity:1;fill-rule:nonzero;stroke:none"
             d="m 0,0 c 0.037,-26.479 21.513,-47.933 48,-47.933 8.45,0 15.648,5.366 18.37,12.878 0.754,2.076 1.165,4.319 1.165,6.658 0,2.337 -0.411,4.58 -1.165,6.656 -2.722,7.512 -9.92,12.878 -18.37,12.878 -0.033,0 -0.067,-0.002 -0.101,-0.002 v -8.372 c 0.034,0 0.068,0.002 0.101,0.002 6.166,0 11.163,-4.997 11.163,-11.162 0,-6.166 -4.997,-11.164 -11.163,-11.164 -6.629,0 -12.88,1.628 -18.37,4.506 C 17.012,-28.44 8.398,-15.229 8.372,0 Z" /></g><g
           transform="translate(0,46.9326)"
           id="g72"><path
             id="path74"
             style="fill:none;stroke:#247fa3;stroke-width:0.60000002;stroke-linecap:butt;stroke-linejoin:miter;stroke-miterlimit:10;stroke-dasharray:none;stroke-opacity:1"
             d="m 0,0 c 0.037,-26.479 21.513,-47.933 48,-47.933 8.45,0 15.648,5.366 18.37,12.878 0.754,2.076 1.165,4.319 1.165,6.658 0,2.337 -0.411,4.58 -1.165,6.656 -2.722,7.512 -9.92,12.878 -18.37,12.878 -0.033,0 -0.067,-0.002 -0.101,-0.002 v -8.372 c 0.034,0 0.068,0.002 0.101,0.002 6.166,0 11.163,-4.997 11.163,-11.162 0,-6.166 -4.997,-11.164 -11.163,-11.164 -6.629,0 -12.88,1.628 -18.37,4.506 C 17.012,-28.44 8.398,-15.229 8.372,0 Z" /></g><g
           transform="translate(87.6279,47)"
           id="g76"><path
             id="path78"
             style="fill:#247fa3;fill-opacity:1;fill-rule:nonzero;stroke:none"
             d="m 0,0 v 0.067 c 2.791,0.11 5.581,0.16 8.372,-0.023 V 0 c 0,-8.097 -2.008,-15.724 -5.548,-22.415 l -6.747,5.205 C -1.409,-12.006 0,-6.168 0,0" /></g><g
           transform="translate(87.6279,47)"
           id="g80"><path
             id="path82"
             style="fill:none;stroke:#247fa3;stroke-width:0.60000002;stroke-linecap:butt;stroke-linejoin:miter;stroke-miterlimit:10;stroke-dasharray:none;stroke-opacity:1"
             d="m 0,0 v 0.067 c 2.791,0.11 5.581,0.16 8.372,-0.023 V 0 c 0,-8.097 -2.008,-15.724 -5.548,-22.415 l -6.747,5.205 C -1.409,-12.006 0,-6.168 0,0 Z" /></g></g></g><g
       id="g84"><g
         clip-path="url(#clipPath90)"
         id="g86"><g
           id="g92"><g
             id="g94"><path
               id="path108"
               style="fill:url(#linearGradient106);stroke:none"
               d="M 66.37,11.878 C 64.345,6.287 59.841,1.886 54.186,0 v 0 h 3.607 c 14.184,2.941 26.076,12.142 32.659,24.585 v 0 L 83.705,29.79 C 80.001,22.119 73.898,15.824 66.37,11.878" /></g></g></g></g><g
       id="g110"><g
         clip-path="url(#clipPath116)"
         id="g112"><g
           transform="translate(48,-1)"
           id="g118"><path
             id="path120"
             style="fill:none;stroke:#247fa3;stroke-width:0.60000002;stroke-linecap:butt;stroke-linejoin:miter;stroke-miterlimit:10;stroke-dasharray:none;stroke-opacity:1"
             d="m 0,0 c 8.45,0 15.648,5.365 18.37,12.878 7.528,3.946 13.631,10.241 17.335,17.912 l 6.747,-5.205 C 34.401,10.369 18.413,0 0,0 Z" /></g><g
           transform="translate(28.4648,75.4648)"
           id="g122"><path
             id="path124"
             style="fill:#247fa3;fill-opacity:1;fill-rule:nonzero;stroke:none"
             d="m 0,0 c 0,-10.755 8.692,-19.479 19.435,-19.533 v 8.372 C 13.315,-11.107 8.373,-6.132 8.373,0 c 0,6.166 4.997,11.163 11.162,11.163 6.629,0 12.88,-1.628 18.37,-4.506 12.618,-6.614 21.232,-19.825 21.258,-35.055 2.791,0.11 5.581,0.16 8.372,-0.022 -0.024,26.489 -21.505,47.955 -48,47.955 -8.45,0 -15.648,-5.366 -18.37,-12.878 C 0.412,4.581 0,2.339 0,0" /></g><g
           transform="translate(28.4648,75.4648)"
           id="g126"><path
             id="path128"
             style="fill:none;stroke:#247fa3;stroke-width:0.60000002;stroke-linecap:butt;stroke-linejoin:miter;stroke-miterlimit:10;stroke-dasharray:none;stroke-opacity:1"
             d="m 0,0 c 0,-10.755 8.692,-19.479 19.435,-19.533 v 8.372 C 13.315,-11.107 8.373,-6.132 8.373,0 c 0,6.166 4.997,11.163 11.162,11.163 6.629,0 12.88,-1.628 18.37,-4.506 12.618,-6.614 21.232,-19.825 21.258,-35.055 2.791,0.11 5.581,0.16 8.372,-0.022 -0.024,26.489 -21.505,47.955 -48,47.955 -8.45,0 -15.648,-5.366 -18.37,-12.878 C 0.412,4.581 0,2.339 0,0 Z" /></g></g></g><g
       id="g130"><g
         clip-path="url(#clipPath136)"
         id="g132"><g
           id="g138"><g
             id="g140"><path
               id="path154"
               style="fill:url(#linearGradient152);stroke:none"
               d="M 59.163,75.465 C 59.163,69.299 54.166,64.302 48,64.302 v 0 c -0.034,0 -0.067,0.002 -0.1,0.002 v 0 -8.372 c 0.033,0 0.066,-0.002 0.1,-0.002 v 0 c 10.789,0 19.535,8.747 19.535,19.535 v 0 c 0,2.339 -0.411,4.58 -1.165,6.656 v 0 C 60.88,85 54.629,86.628 48,86.628 v 0 c 6.166,0 11.163,-4.998 11.163,-11.163" /></g></g></g></g><g
       id="g156"><g
         clip-path="url(#clipPath162)"
         id="g158"><g
           transform="translate(47.8994,64.3042)"
           id="g164"><path
             id="path166"
             style="fill:none;stroke:#247fa3;stroke-width:0.60000002;stroke-linecap:butt;stroke-linejoin:miter;stroke-miterlimit:10;stroke-dasharray:none;stroke-opacity:1"
             d="m 0,0 v -8.372 c 0.034,0 0.067,-0.002 0.101,-0.002 10.789,0 19.535,8.746 19.535,19.535 0,2.339 -0.411,4.58 -1.165,6.656 -5.491,2.879 -11.742,4.507 -18.37,4.507 6.166,0 11.163,-4.998 11.163,-11.163 C 11.264,4.995 6.267,-0.002 0.101,-0.002 0.067,-0.002 0.034,0 0,0 Z" /></g></g></g><g
       id="g168"><g
         clip-path="url(#clipPath174)"
         id="g170"><g
           id="g176"><g
             id="g178"><path
               id="path192"
               style="fill:url(#linearGradient190);stroke:none"
               d="m 29.63,25.191 c -0.754,-2.075 -1.165,-4.318 -1.165,-6.655 v 0 c 0,-2.34 0.411,-4.582 1.165,-6.658 v 0 C 35.12,9 41.371,7.372 48,7.372 v 0 c -6.165,0 -11.163,4.997 -11.163,11.164 v 0 c 0,6.131 4.944,11.105 11.063,11.159 v 0 8.372 C 39.494,38.025 32.341,32.674 29.63,25.191" /></g></g></g></g><g
       id="g194"><g
         clip-path="url(#clipPath200)"
         id="g196"><g
           transform="translate(28.4648,18.5352)"
           id="g202"><path
             id="path204"
             style="fill:none;stroke:#247fa3;stroke-width:0.60000002;stroke-linecap:butt;stroke-linejoin:miter;stroke-miterlimit:10;stroke-dasharray:none;stroke-opacity:1"
             d="m 0,0 c 0,-2.339 0.412,-4.581 1.165,-6.657 5.49,-2.878 11.741,-4.506 18.37,-4.506 -6.165,0 -11.162,4.997 -11.162,11.163 0,6.132 4.942,11.106 11.062,11.16 v 8.372 C 11.029,19.49 3.875,14.14 1.165,6.656 0.412,4.58 0,2.338 0,0 Z" /></g></g></g></g></svg>